<?xml version="1.0" encoding="utf-8"?>
<!-- Generator: Adobe Illustrator 21.0.0, SVG Export Plug-In . SVG Version: 6.00 Build 0)  -->
<svg version="1.1" id="Layer_1" xmlns="http://www.w3.org/2000/svg" xmlns:xlink="http://www.w3.org/1999/xlink" x="0px" y="0px"
	 viewBox="0 0 93 30" style="enable-background:new 0 0 93 30;" xml:space="preserve">
<title>ico-logo-b</title>
	<path style="fill:#FFFFFF;" d="M15.1,13.7V23h-3.8v-9.1c0-1.2-0.2-2.1-0.7-2.6c-0.5-0.5-1.2-0.8-2.1-0.8c-1.1,0-2.1,0.4-2.8,1.1
		c-0.7,0.7-1.1,1.7-1.1,2.9V23H1V0.9h3.7V10c0.5-0.8,1.2-1.5,2.1-1.9c0.9-0.5,1.8-0.7,2.9-0.7C13.3,7.5,15.1,9.5,15.1,13.7z"/>
	<path style="fill:#FFFFFF;" d="M32.6,7.8l-7,16.2c-0.8,1.9-1.8,3.2-3.1,4.1c-1.2,0.9-2.8,1.4-4.6,1.7L17.1,27c1.4-0.3,2.5-0.7,3.2-1.2
		c0.7-0.5,1.3-1.2,1.7-2.2l0.5-1.1L16.2,7.8h3.9l4.4,10.9l4.4-10.9H32.6z"/>
	<path style="fill:#FBC4C4;" d="M47.3,7.9V23h-2.4v-2.7c-0.4,0.9-1.1,1.7-2,2.2C42,23,41,23.2,39.8,23.2c-1.3,0-2.5-0.3-3.5-1
		c-1-0.6-1.8-1.5-2.3-2.7c-0.6-1.2-0.8-2.5-0.8-4.1c0-1.6,0.3-2.9,0.8-4.1c0.6-1.2,1.3-2.1,2.4-2.8s2.2-1,3.5-1
		c1.2,0,2.2,0.3,3.1,0.8c0.9,0.5,1.5,1.2,2,2.2V7.9H47.3z M43.7,19.7c0.8-1,1.2-2.4,1.2-4.3s-0.4-3.3-1.2-4.3s-1.9-1.5-3.4-1.5
		s-2.6,0.5-3.5,1.5c-0.8,1-1.2,2.5-1.2,4.3s0.4,3.3,1.2,4.3c0.8,1,2,1.5,3.5,1.5C41.8,21.2,42.9,20.7,43.7,19.7z"/>
	<path style="fill:#FBC4C4;" d="M64.2,13.5V23h-2.4v-9.4c0-1.4-0.3-2.4-0.8-3.1c-0.6-0.7-1.4-1-2.6-1c-1.4,0-2.5,0.4-3.4,1.3
		c-0.8,0.9-1.3,2-1.3,3.5V23h-2.4V12.1c0-1.6-0.1-3-0.2-4.2h2.3l0.2,2.7c0.5-1,1.1-1.7,2.1-2.3c0.9-0.5,2-0.8,3.1-0.8
		C62.4,7.5,64.2,9.5,64.2,13.5z"/>
	<path style="fill:#FBC4C4;" d="M81.5,7.9v15c0,2.2-0.6,3.9-1.7,5.1c-1.2,1.2-2.8,1.7-5.1,1.7c-2.3,0-4.3-0.5-5.9-1.6l0.4-2
		c1,0.5,1.9,0.9,2.7,1.2c0.8,0.2,1.8,0.4,2.8,0.4c1.5,0,2.6-0.4,3.3-1.2c0.7-0.8,1.1-1.9,1.1-3.4v-3.6c-0.5,1-1.1,1.7-2,2.2
		c-0.9,0.5-1.9,0.8-3.2,0.8c-1.3,0-2.5-0.3-3.5-0.9S68.5,20.1,68,19c-0.6-1.1-0.8-2.5-0.8-3.9c0-1.5,0.3-2.8,0.8-3.9
		c0.6-1.1,1.4-2,2.4-2.6s2.2-0.9,3.5-0.9c1.2,0,2.2,0.3,3.1,0.8c0.9,0.5,1.6,1.2,2,2.2V7.9H81.5z M77.8,19.1c0.8-1,1.2-2.3,1.2-4
		c0-1.7-0.4-3-1.2-4c-0.8-1-2-1.5-3.4-1.5c-1.5,0-2.6,0.5-3.5,1.5c-0.8,1-1.3,2.3-1.3,4c0,1.7,0.4,3,1.3,4c0.9,1,2,1.5,3.5,1.5
		C75.8,20.5,77,20,77.8,19.1z"/>
	<rect x="87" y="17" style="#333333;" width="6" height="6"/>
</svg>
