<?xml version="1.0" encoding="utf-8"?>
<!-- Generator: Adobe Illustrator 21.0.0, SVG Export Plug-In . SVG Version: 6.00 Build 0)  -->
<svg version="1.1" id="Layer_1" xmlns="http://www.w3.org/2000/svg" xmlns:xlink="http://www.w3.org/1999/xlink" x="0px" y="0px"
	 viewBox="0 0 99 24" style="enable-background:new 0 0 99 24;" xml:space="preserve">
<style type="text/css">
	.st0{enable-background:new    ;}
	.st1{fill:#FFB02A;}
	.st2{fill:#39D6B3;}
	.st3{fill:#252D35;}
</style>
<title>APLAN</title>
<desc>Created with Sketch.</desc>
<g id="logo" transform="translate(113.000000, 16.000000)">
	<g class="st0">
		<path class="st1" d="M-93.1,7h-4.6L-99,3.1h-7.6l-1.2,3.9h-4.6l7.3-20.9c0.3-0.7,0.7-1.2,1.1-1.5c0.4-0.3,0.9-0.4,1.5-0.4
			c0.6,0,1,0.1,1.4,0.4c0.4,0.3,0.7,0.8,0.9,1.5L-93.1,7z M-100-0.7l-2.7-9l-2.8,9H-100z"/>
	</g>
	<g class="st0">
		<path class="st2" d="M-75.5-13.8c1.3,1.3,2,3.2,2,5.8c0,2.5-0.7,4.5-2,5.8c-1.3,1.3-3.2,2-5.6,2h-4.4V7h-4.4v-22.8h8.8
			C-78.7-15.8-76.9-15.1-75.5-13.8z M-78-8c0-2.5-1.1-3.8-3.3-3.8h-4.2v7.5h4.2c1.1,0,1.9-0.3,2.4-0.9C-78.3-5.7-78-6.7-78-8z"/>
	</g>
	<g class="st0">
		<path class="st3" d="M-55.8,7h-6.8c-2.6,0-4.4-0.5-5.6-1.5c-1.1-1-1.7-2.6-1.7-4.8v-16.4h4.4V0.7c0,0.9,0.2,1.5,0.6,1.9
			c0.4,0.3,1.1,0.5,2.2,0.5h6.8V7z"/>
		<path class="st3" d="M-35,7h-4.6l-1.3-3.9h-7.6L-49.8,7h-4.6l7.3-20.9c0.3-0.7,0.7-1.2,1.1-1.5c0.4-0.3,0.9-0.4,1.5-0.4
			c0.6,0,1,0.1,1.4,0.4c0.4,0.3,0.7,0.8,0.9,1.5L-35,7z M-41.9-0.7l-2.7-9l-2.8,9H-41.9z"/>
		<path class="st3" d="M-14.1-15.8V4.7c0,0.7-0.2,1.3-0.6,1.8s-0.9,0.8-1.5,0.8c-1.5,0-2.7-0.9-3.6-2.6l-7.9-12.3V7h-4.4v-22.8h4.3
			l9.3,14.9v-14.9H-14.1z"/>
	</g>
</g>
</svg>
