<?xml version="1.0" encoding="UTF-8"?>
<svg width="444px" height="363px" viewBox="0 0 444 363" version="1.1" xmlns="http://www.w3.org/2000/svg" xmlns:xlink="http://www.w3.org/1999/xlink">
    <!-- Generator: Sketch 52.5 (67469) - http://www.bohemiancoding.com/sketch -->
    <title>graph</title>
    <desc>Created with Sketch.</desc>
    <g id="Page-1" stroke="none" stroke-width="1" fill="none" fill-rule="evenodd">
        <g id="Home" transform="translate(-135.000000, -92.000000)">
            <g id="hero" transform="translate(135.000000, 92.000000)">
                <g id="graph">
                    <path d="M162.627341,316.909859 C186.274341,319.950859 210.125341,320.405859 233.920341,321.316859 C244.830341,321.734859 255.526341,321.231859 265.598341,325.144859 C275.028341,328.809859 282.559341,336.165859 292.290341,339.318859 C299.843341,341.764859 307.989341,341.678859 315.877341,340.781859 C349.240341,336.985859 380.649341,318.405859 400.041341,290.993859 C417.802341,265.886859 425.218341,233.761859 420.566341,203.389859 C417.744341,184.967859 409.267341,167.787859 407.235341,149.225859 C405.086341,129.602859 412.581341,112.494859 417.317341,93.8338589 C420.619341,80.8208589 422.062341,67.3378589 421.588341,53.9218589 C421.315341,46.1918589 420.343341,38.2698589 416.687341,31.4538589 C406.753341,12.9418589 381.706341,9.44785891 360.800341,11.5348589 C334.923341,14.1168589 309.106341,22.1008589 286.340341,34.6718589 C268.364341,44.5978589 250.560341,59.0458589 229.930341,62.9628589 C206.668341,67.3788589 188.675341,51.4378589 167.740341,44.1668589 C120.636341,27.8068589 63.7653412,59.9438589 43.0003412,102.686859 C17.3653412,155.452859 20.2833412,241.771859 68.2653412,280.930859 C94.4133412,302.270859 128.107341,312.356859 161.568341,316.770859 C161.921341,316.817859 162.274341,316.863859 162.627341,316.909859" id="Fill-4" fill="#FDEBCC"></path>
                    <polyline id="Fill-2699" fill="#F7BB55" points="101.492 277.441 100.297 275 67 300.439 81.527 323.973 114.671 296.026 101.492 277.441"></polyline>
                    <path d="M100.439,277 L68,301.025 C68,301.025 68.136,301.541 68.941,301.859 C69.746,302.177 70.213,302.097 70.213,302.097 L104.317,278.755 C104.317,278.755 102.351,278.298 101.637,277.766 C100.924,277.232 100.439,277 100.439,277" id="Fill-2701" fill="#EEEAE5"></path>
                    <path d="M105.547,277 L70,300.743 L81.544,322.622 L83.404,325.654 L118.953,299.343 C118.953,299.343 115.208,293.755 112.96,290.381 C110.712,287.007 106.3,279.05 106.059,278.54 C105.819,278.032 105.547,277 105.547,277" id="Fill-2702" fill="#F7BB55"></path>
                    <path d="M61.350784,75 C61.350784,75 59.239784,76.461 60.295784,78.897 C61.350784,81.333 65.978784,88.559 72.230784,88.315 C72.486784,88.305 64.354784,75 64.354784,75 L61.350784,75" id="Fill-2707" fill="#875444"></path>
                    <path d="M52.2175162,207.884003 C52.2175162,207.884003 44.3995162,200.899003 41.8965162,202.150003 C38.8385162,203.679003 21.3355162,220.828003 22.0195162,228.908003 C22.2995162,232.216003 26.1515162,229.381003 33.0165162,222.261003 C39.8815162,215.142003 48.5275162,218.193003 48.5275162,218.193003 L52.2175162,207.884003" id="Fill-2708" fill="#875444"></path>
                    <path d="M70.4855542,219.662 L61.0465542,214 C61.0465542,214 36.5825542,236.936 40.4055542,239.993 C43.3045542,242.313 45.0075542,240.233 51.8725542,233.114 C58.7375542,225.994 67.4345542,230.087 67.4345542,230.087 L70.4855542,219.662" id="Fill-2709" fill="#875444"></path>
                    <path d="M91.061,160 C91.061,160 125.428,162.166 130.004,160.639 C130.004,160.639 136.72,226.616 124.769,233.734 C112.818,240.855 86,230.429 86,230.429 L93.241,216.192 L108.853,215.174 L108.853,189.749 L107.734,190.003 L91.061,160" id="Fill-2711" fill="#252D35"></path>
                    <path d="M48.4041367,205.004 C48.4041367,205.004 39.7601367,208.564 42.5571367,217.209 C42.5571367,217.209 72.0631367,240.346 86.4211367,235.006 C94.4651367,232.016 103.106137,209.193 109.151137,189.696 L130.425137,160.639 C130.425137,160.639 120.392137,161.141 117.044137,161.128 C110.648137,161.104 91.4821367,160 91.4821367,160 C91.4821367,160 81.4721367,212.378 77.9051367,213.649 C74.3381367,214.919 48.4041367,205.004 48.4041367,205.004" id="Fill-2712" fill="#252D35"></path>
                    <path d="M99,94.7396135 C99,94.7396135 119.596,75.4156135 123.155,70.3296135 C126.714,65.2446135 134.343,48.2096135 143.749,41.0896135 L139.173,31.4286135 C139.173,31.4286135 141.97,29.9036135 143.749,33.9706135 C143.749,33.9706135 150.359,20.7496135 151.884,21.0036135 C153.411,21.2576135 148.835,31.1736135 148.835,31.1736135 C148.835,31.1736135 155.193,22.0196135 156.972,22.2756135 C158.75,22.5296135 152.394,32.5656135 152.394,32.5656135 C152.394,32.5656135 159.513,24.3096135 160.531,25.3266135 C161.548,26.3436135 154.937,32.5656135 154.937,32.5656135 C154.937,32.5656135 162.055,28.4786135 162.818,29.8256135 C163.582,31.1736135 155.7,34.7336135 155.7,34.7336135 C155.7,34.7336135 154.937,40.5816135 150.107,43.1236135 C150.107,43.1236135 140.542,68.9646135 131.897,77.3556135 L104.126,106.217614 L99,94.7396135" id="Fill-2713" fill="#F4C3B7"></path>
                    <path d="M74.2272138,105 C74.2272138,105 54.7132138,125.414 49.5942138,128.925 C44.4752138,132.434 27.3712138,139.906 20.1642138,149.246 L10.5452138,144.578 C10.5452138,144.578 8.99421378,147.361 13.0452138,149.178 C13.0452138,149.178 -0.236786221,155.664 0.00321377884,157.194 C0.242213779,158.722 10.2012138,154.238 10.2012138,154.238 C10.2012138,154.238 0.988213779,160.51 1.22621378,162.29 C1.46421378,164.072 11.5582138,157.81 11.5582138,157.81 C11.5582138,157.81 3.23621378,164.851 4.24421378,165.877 C5.25121378,166.905 11.5352138,160.352 11.5352138,160.352 C11.5352138,160.352 7.38221378,167.432 8.72321378,168.208 C10.0632138,168.983 13.6962138,161.136 13.6962138,161.136 C13.6962138,161.136 19.5502138,160.429 22.1392138,155.62 C22.1392138,155.62 46.6162138,145.883 55.0882138,137.316 L85.5482138,115.733 L74.2272138,105" id="Fill-2714" fill="#F4C3B7"></path>
                    <path d="M81.87,96.583 L72,106.244 L74.503,117.137 C74.503,117.137 84.228,140.482 85.697,146.177 C87.982,155.033 84.286,168.535 84.286,168.535 C84.286,168.535 100.771,167.167 115.771,166.658 C130.77,166.15 135.677,161.318 135.677,161.318 C135.677,161.318 122.672,118.004 113.694,105.896 C104.713,93.79 101.447,90 101.447,90 L88.226,92.89 L81.87,96.583" id="Fill-2715" fill="#FFFFFE"></path>
                    <path d="M111.09,103.914 L121.374,97.343 C121.374,97.343 122.945,90.303 110.543,82 L96,91.112 L111.09,103.914" id="Fill-2716" fill="#FFFFFE"></path>
                    <path d="M74.09,105.205412 C68.452,105.996412 58.149,120.285412 57,120.257412 C57,120.257412 64.251,132.090412 69.995,132.474412 C69.995,132.474412 95.272,102.234412 74.09,105.205412" id="Fill-2717" fill="#FFFFFE"></path>
                    <path d="M94.3856082,96.0665087 C94.3856082,96.0665087 86.1906082,89.9445087 86.4746082,87.5025087 C86.5466082,86.8885087 87.6826082,85.8895087 87.9776082,85.0035087 C89.5666082,80.2375087 81.9046082,67.9535087 77.1986082,65.3655087 C73.4956082,63.3285087 75.1186082,63.1485087 67.3256082,67.7795087 C59.5326082,72.4105087 63.9726082,80.4195087 67.4526082,84.5605087 C70.7426082,88.4755087 74.5106082,90.1535087 77.9006082,90.4355087 L82.7206082,101.141509 L94.3856082,96.0665087" id="Fill-2718" fill="#F4C3B7"></path>
                    <path d="M79.4141867,104.690669 C77.8641867,100.888669 80.7991867,96.0986686 85.9701867,93.9906686 C91.1431867,91.8806686 96.5901867,93.2516686 98.1431867,97.0536686 C99.6921867,100.853669 94.4881867,106.567669 91.5831867,107.752669 C88.6781867,108.936669 80.9631867,108.490669 79.4141867,104.690669" id="Fill-2719" fill="#F4C3B7"></path>
                    <path d="M66.9651247,85.0029768 C66.9651247,85.0029768 64.3081247,84.8559768 64.0121247,86.6279768 C63.7171247,88.3999768 68.8851247,88.3999768 70.8041247,87.0709768 L66.9651247,85.0029768" id="Fill-2720" fill="#F1B0A0"></path>
                    <path d="M67.8789496,86.0039485 C67.3739496,82.8029485 63.9639496,80.4229485 64.1329496,77.3039485 C65.7689496,77.3159485 66.8189496,75.2909485 66.0739496,73.5609485 C65.7819496,72.8809485 65.2849496,72.2979485 64.9689496,71.6269485 C64.6519496,70.9569485 64.5679496,70.0789485 65.0539496,69.7009485 C65.2829496,69.5219485 65.5939496,69.4909485 65.8919496,69.4599485 C68.3169496,69.2109485 72.4689496,69.9379485 74.6999496,69.1119485 C76.8249496,68.3249485 79.1009496,66.7929485 78.8789496,64.1909485 C78.6859496,61.9259485 76.6859496,60.0879485 74.8479496,58.7009485 C73.7939496,57.9049485 70.7849496,55.8239485 69.6509496,56.0119485 C67.9169496,56.3009485 67.4979496,58.6119485 67.3719496,60.5479485 C66.1599496,59.3929485 64.3729496,59.5789485 63.3179496,60.5179485 C62.2639496,61.4559485 61.7659496,62.9479485 61.3059496,64.3889485 C60.8459496,65.8299485 60.3599496,67.3259485 59.3199496,68.2819485 C58.3499496,69.1749485 56.8169496,69.8499485 57.0179496,71.3669485 C57.2569496,73.1749485 59.6189496,73.8179485 60.7109496,75.3589485 C60.4429496,74.9809485 60.2139496,77.3949485 60.3689496,77.8049485 C60.8349496,79.0379485 61.9979496,79.8529485 62.8389496,80.7969485 C64.6309496,82.8069485 65.5069496,84.8309485 67.8789496,86.0039485" id="Fill-2721" fill="#875444"></path>
                    <path d="M83.056,79 L77,82.132 C77,82.132 84.274,87.412 83.056,79" id="Fill-2722" fill="#FFFFFE"></path>
                    <path d="M74.4884015,80.5535667 C74.8194015,81.1815667 74.3294015,82.0895667 73.3944015,82.5815667 C72.4594015,83.0735667 71.4334015,82.9635667 71.1034015,82.3355667 C70.7724015,81.7075667 71.2624015,80.7995667 72.1974015,80.3075667 C73.1324015,79.8155667 74.1584015,79.9255667 74.4884015,80.5535667" id="Fill-2723" fill="#ED9E90"></path>
                    <path d="M83.4884015,74.5533728 C83.8194015,75.1813728 83.3294015,76.0893728 82.3944015,76.5823728 C81.4594015,77.0743728 80.4334015,76.9633728 80.1034015,76.3353728 C79.7724015,75.7083728 80.2624015,74.8003728 81.1974015,74.3083728 C82.1324015,73.8153728 83.1584015,73.9253728 83.4884015,74.5533728" id="Fill-2724" fill="#ED9E90"></path>
                    <path d="M79.004085,79.05705 C78.976085,79.02205 79.089085,78.87305 79.352085,78.68405 C79.601085,78.49005 80.036085,78.28305 80.359085,77.93505 C80.679085,77.59705 80.795085,76.89505 80.305085,76.79605 C79.795085,76.62305 79.218085,77.20705 78.555085,77.76205 C78.390085,77.89805 78.228085,78.03305 78.068085,78.16605 C77.917085,78.30305 77.601085,78.50605 77.273085,78.46505 C76.648085,78.36505 76.383085,77.94705 76.142085,77.66905 C75.662085,77.05205 75.366085,76.40705 75.202085,75.84905 C74.877085,74.72105 75.023085,73.99305 75.101085,74.00005 C75.211085,73.99405 75.247085,74.69405 75.660085,75.68605 C75.867085,76.17905 76.179085,76.73905 76.632085,77.26805 C76.852085,77.53605 77.130085,77.78605 77.328085,77.79405 C77.412085,77.79805 77.476085,77.77005 77.633085,77.63905 C77.791085,77.50605 77.951085,77.37105 78.114085,77.23505 C78.447085,76.96505 78.736085,76.69205 79.118085,76.43805 C79.489085,76.18805 80.019085,76.03005 80.492085,76.19105 C80.999085,76.32305 81.295085,76.91405 81.207085,77.32405 C81.150085,77.74205 80.943085,78.05005 80.707085,78.27505 C80.207085,78.69205 79.761085,78.79305 79.480085,78.91905 C79.192085,79.02805 79.035085,79.09605 79.004085,79.05705" id="Fill-2725" fill="#E26559"></path>
                    <path d="M83.96,89 C83.96,89 82.186,91.177 78.638,91.742 L78,90.268 C78,90.268 81.863,90.29 83.96,89 Z" id="Fill-2726" fill="#E98E82"></path>
                    <path d="M79.3500702,73.2845989 C79.3150702,73.4755989 78.7750702,73.5345989 78.2040702,73.7865989 C77.6260702,74.0205989 77.2080702,74.3675989 77.0460702,74.2595989 C76.8810702,74.1715989 77.1550702,73.4825989 77.9360702,73.1535989 C78.7170702,72.8215989 79.4020702,73.1045989 79.3500702,73.2845989" id="Fill-2727" fill="#252D35"></path>
                    <path d="M72.0429929,78.082997 C71.8969929,77.975997 72.1259929,77.352997 72.6819929,76.730997 C73.2449929,76.094997 73.9639929,75.882997 74.0399929,76.059997 C74.1199929,76.233997 73.6819929,76.636997 73.1879929,77.195997 C72.6879929,77.752997 72.2009929,78.201997 72.0429929,78.082997" id="Fill-2728" fill="#252D35"></path>
                    <path d="M68.2571474,77.6067698 C67.9431474,77.3737698 67.6991474,76.3817698 68.8971474,75.0437698 C70.1071474,73.6757698 71.4581474,73.9157698 71.6201474,74.2967698 C71.7931474,74.6697698 71.3441474,75.2007698 70.2831474,76.4027698 C69.2061474,77.6017698 68.5961474,77.8607698 68.2571474,77.6067698" id="Fill-2729" fill="#875444"></path>
                    <path d="M75.0523124,72.1980542 C74.8793124,71.8740542 75.0703124,70.9310542 76.6283124,70.2740542 C78.2083124,69.5950542 79.2613124,70.3440542 79.2463124,70.7330542 C79.2433124,71.1200542 78.6483124,71.3910542 77.2613124,71.9890542 C75.8613124,72.5760542 75.2383124,72.5510542 75.0523124,72.1980542" id="Fill-2730" fill="#875444"></path>
                    <path d="M186.902347,258.006942 C187.061347,258.178942 185.503347,259.663942 183.481347,262.422942 C182.979347,263.116942 182.434347,263.874942 181.925347,264.740942 C181.367347,265.574942 180.882347,266.531942 180.341347,267.518942 C179.337347,269.533942 178.384347,271.822942 177.649347,274.313942 C176.947347,276.814942 176.536347,279.259942 176.315347,281.499942 C176.248347,282.622942 176.150347,283.691942 176.179347,284.695942 C176.150347,285.699942 176.208347,286.631942 176.264347,287.485942 C176.510347,290.896942 177.039347,292.983942 176.813347,293.044942 C176.677347,293.091942 175.804347,291.076942 175.298347,287.584942 C175.178347,286.713942 175.061347,285.754942 175.039347,284.717942 C174.961347,283.681942 175.017347,282.574942 175.053347,281.407942 C175.210347,279.080942 175.598347,276.531942 176.329347,273.933942 C177.091347,271.345942 178.118347,268.979942 179.223347,266.925942 C179.813347,265.917942 180.354347,264.951942 180.972347,264.115942 C181.541347,263.248942 182.150347,262.497942 182.716347,261.824942 C185.001347,259.136942 186.812347,257.894942 186.902347,258.006942" id="Fill-2695" fill="#FFFFFE"></path>
                    <path d="M191.280896,270.02757 C191.395896,270.21157 190.526896,270.87557 189.393896,272.14557 C188.818896,272.77357 188.214896,273.58557 187.619896,274.52757 C187.049896,275.48557 186.503896,276.58457 186.074896,277.79657 C185.664896,279.01557 185.418896,280.21757 185.276896,281.32357 C185.163896,282.43257 185.139896,283.44357 185.204896,284.29257 C185.314896,285.99157 185.589896,287.05057 185.384896,287.12357 C185.236896,287.18557 184.619896,286.21757 184.241896,284.42157 C184.044896,283.52657 183.963896,282.43157 184.014896,281.21757 C184.094896,280.00757 184.326896,278.68057 184.775896,277.34857 C185.242896,276.02357 185.878896,274.83657 186.561896,273.83357 C187.268896,272.84657 188.007896,272.03357 188.714896,271.45057 C190.118896,270.26857 191.202896,269.88757 191.280896,270.02757" id="Fill-2696" fill="#FFFFFE"></path>
                    <path d="M140.010788,158.004328 C140.082788,157.942328 140.696788,158.548328 141.751788,159.702328 C142.288788,160.273328 142.920788,160.991328 143.590788,161.878328 C144.268788,162.757328 145.081788,163.733328 145.845788,164.906328 C146.240788,165.485328 146.653788,166.091328 147.083788,166.724328 C147.509788,167.359328 147.895788,168.055328 148.325788,168.758328 C149.205788,170.154328 149.994788,171.730328 150.853788,173.374328 C152.473788,176.709328 154.021788,180.494328 155.255788,184.598328 C156.449788,188.713328 157.208788,192.732328 157.660788,196.412328 C157.833788,198.258328 158.027788,200.010328 158.047788,201.660328 C158.068788,202.484328 158.122788,203.279328 158.110788,204.043328 C158.093788,204.807328 158.076788,205.541328 158.059788,206.241328 C158.055788,207.642328 157.902788,208.903328 157.812788,210.009328 C157.731788,211.117328 157.591788,212.065328 157.452788,212.834328 C157.193788,214.377328 157.006788,215.219328 156.913788,215.206328 C156.670788,215.174328 157.126788,211.755328 157.088788,206.230328 C157.076788,205.539328 157.063788,204.817328 157.050788,204.063328 C157.034788,203.311328 156.955788,202.529328 156.909788,201.720328 C156.841788,200.098328 156.607788,198.380328 156.404788,196.569328 C155.890788,192.961328 155.109788,189.026328 153.937788,184.987328 C152.726788,180.960328 151.242788,177.232328 149.713788,173.924328 C148.900788,172.294328 148.162788,170.725328 147.338788,169.326328 C146.936788,168.622328 146.578788,167.923328 146.182788,167.282328 C145.784788,166.643328 145.401788,166.029328 145.036788,165.444328 C142.065788,160.784328 139.824788,158.163328 140.010788,158.004328" id="Fill-2697" fill="#FFFFFE"></path>
                    <path d="M156.014927,165.005142 C156.131927,164.901142 157.709927,166.377142 159.716927,169.222142 C160.726927,170.638142 161.790927,172.423142 162.826927,174.481142 C163.832927,176.553142 164.793927,178.906142 165.559927,181.457142 C166.301927,184.013142 166.774927,186.511142 167.055927,188.797142 C167.303927,191.088142 167.381927,193.164142 167.301927,194.902142 C167.163927,198.381142 166.640927,200.477142 166.486927,200.453142 C166.265927,200.426142 166.441927,198.303142 166.330927,194.902142 C166.284927,193.200142 166.109927,191.182142 165.800927,188.962142 C165.458927,186.746142 164.962927,184.330142 164.241927,181.846142 C163.496927,179.369142 162.600927,177.071142 161.683927,175.025142 C160.736927,172.992142 159.787927,171.203142 158.901927,169.751142 C157.146927,166.834142 155.844927,165.148142 156.014927,165.005142" id="Fill-2698" fill="#FFFFFE"></path>
                    <path d="M179.892349,154.082908 C177.795349,148.878908 176.989349,143.084908 173.860349,138.426908 C169.357349,131.725908 160.709349,128.400908 157.054349,121.200908 C155.503349,118.142908 155.015349,114.645908 155.000349,111.216908 C154.969349,104.431908 157.001349,97.2199079 162.240349,92.9089079 C168.261349,87.9549079 177.295349,88.0249079 184.347349,91.3529079 C191.398349,94.6799079 196.784349,100.720908 201.365349,107.030908 C205.945349,113.340908 209.955349,120.111908 215.290349,125.797908 C219.244349,130.013908 223.935349,133.648908 226.915349,138.601908 C235.082349,152.180908 226.678349,169.361908 212.260349,174.262908 C199.591349,178.568908 184.275349,164.961908 179.892349,154.082908" id="Fill-2763" fill="#252D35"></path>
                    <path d="M161.400715,249.753 C162.654715,250.785 161.286715,250.071 163.110715,251.258 C162.703715,255.815 158.488715,258.686 158.488715,258.686 C158.488715,258.686 158.309715,265.942 156.955715,265.792 C155.599715,265.645 156.468715,258.807 156.468715,258.807 C156.468715,258.807 153.693715,265.953 152.519715,265.497 C151.346715,265.044 155.594715,256.844 155.594715,256.844 C155.594715,256.844 149.640715,265.039 148.822715,263.748 C148.005715,262.457 153.244715,254.548 153.244715,254.548 C153.244715,254.548 146.775715,261.33 146.044715,260.233 C145.314715,259.137 153.764715,249.705 153.764715,249.705 C149.853715,249.662 150.130715,247 150.130715,247 L159.656715,247.565 C159.656715,247.565 160.823715,249.278 161.400715,249.753" id="Fill-2764" fill="#F4C3B7"></path>
                    <path d="M252.994,113.107128 C254.624,113.392128 253.359,112.853128 255.475,113.468128 C258.948,110.312128 258.487,105.352128 258.487,105.352128 C258.487,105.352128 264.314,100.680128 263.347,99.7681276 C262.375,98.8521276 257.321,103.777128 257.321,103.777128 C257.321,103.777128 261.434,97.2431276 260.328,96.6551276 C259.223,96.0681276 255.166,104.356128 255.166,104.356128 C255.166,104.356128 258.151,94.8021276 256.582,95.0031276 C255.015,95.2031276 251.815,104.043128 251.815,104.043128 C251.815,104.043128 253.32,94.9941276 251.967,95.1371276 C250.613,95.2801276 248.423,107.135128 248.423,107.135128 C245.232,104.537128 243,106.200128 243,106.200128 L249.982,113.046128 C249.982,113.046128 252.245,112.976128 252.994,113.107128" id="Fill-2765" fill="#F4C3B7"></path>
                    <path d="M213.260596,152.025268 C216.208596,151.565268 225.195596,157.389268 222.908596,169.216268 C222.716596,170.209268 221.419596,172.395268 221.097596,173.299268 C220.688596,174.445268 223.868596,178.635268 223.868596,178.635268 L215.661596,181.257268 C215.310596,178.778268 215.899596,175.155268 213.247596,174.078268 C212.255596,173.675268 211.193596,173.420268 210.257596,172.909268 C207.730596,171.529268 206.381596,168.510268 205.343596,166.038268 C204.568596,164.192268 203.978596,162.205268 204.000596,160.202268 C204.055596,155.156268 208.524596,152.764268 213.260596,152.025268" id="Fill-2766" fill="#F4C3B7"></path>
                    <path d="M229.184,184.882 C229.184,180.625 227.833,179 223.366,179 C218.898,179 213,180.625 213,184.882 C213,189.14 216.155,194.468 220.625,194.468 C225.092,194.468 229.184,189.14 229.184,184.882" id="Fill-2767" fill="#F4C3B7"></path>
                    <path d="M226,177.156 C226,177.156 239.892,162.831 242.671,148.8 C245.451,134.769 250.173,112 250.173,112 L255.454,113.449 C255.454,113.449 257.956,144.564 255.454,149.33 C252.953,154.095 238.781,187.189 239.059,195.659 L226,177.156" id="Fill-2768" fill="#F4C3B7"></path>
                    <path d="M201.403,184 C201.403,184 196.679,184.794 189.454,201.209 C182.229,217.623 160,248.181 160,248.181 L163.613,251.508 C163.613,251.508 185.286,235.36 189.454,225.566 C193.622,215.77 198.901,203.592 201.403,204.12 C203.903,204.651 214.464,190.088 201.403,184" id="Fill-2769" fill="#F4C3B7"></path>
                    <path d="M238.53,197.232 L244.999,179.377 C244.999,179.377 244.002,171.002 231.233,168 L224,178.423 L238.53,197.232" id="Fill-2770" fill="#39D6B3"></path>
                    <path d="M202.818,182 C202.818,182 195.186,182.643 189,196.23 C189,196.23 195.804,205.622 200.78,205.939 C200.78,205.939 219.265,190.139 202.818,182" id="Fill-2771" fill="#39D6B3"></path>
                    <path d="M224.134412,343.009 C224.134412,343.009 213.117412,365.505 211.829412,361.34 C210.543412,357.173 210.968412,347.167 211.659412,345.739 C212.351412,344.31 216.855412,338 216.855412,338 L224.134412,343.009" id="Fill-2772" fill="#F1B0A0"></path>
                    <path d="M225.121,236.852 L235.195,233 C235.195,233 265.095,285.827 264.971,300.485 C264.847,315.141 223.906,344.486 223.906,344.486 L217,338.799 C217,338.799 236.406,310.268 243.163,302.863 C246.542,299.159 222.352,281.014 218.688,263.554 C215.024,246.094 225.121,236.852 225.121,236.852" id="Fill-2773" fill="#252D35"></path>
                    <path d="M164.777007,331.628 C164.777007,331.628 144.169007,346.818 145.026007,342.555 C145.886007,338.288 151.074007,329.58 152.374007,328.611 C153.677007,327.643 160.714007,324 160.714007,324 L164.777007,331.628" id="Fill-2774" fill="#F1B0A0"></path>
                    <path d="M197.228,255.275 L227.035,238 C227.035,238 228.219,298.008 221.063,310.983 C213.907,323.958 163.405,332.178 163.405,332.178 L160,324.11 C160,324.11 191.157,305.546 200.724,301.913 C210.291,298.278 197.228,255.275 197.228,255.275" id="Fill-2775" fill="#252D35"></path>
                    <path d="M215.285177,226 C215.285177,226 193.337177,233.772 197.533177,255.092 C201.728177,276.412 208.721177,280.409 208.721177,280.409 L221.308177,259.756 L233.946177,232.709 L221.308177,231.107 L215.285177,226" id="Fill-2776" fill="#252D35"></path>
                    <path d="M226.102,177 C226.102,177 242.26,186.056 242.26,206.518 C242.26,206.518 240.207,229.847 236.881,234.946 C236.881,234.946 231.473,236.265 224.73,234.946 C217.66,233.561 210.817,228.591 210.817,228.591 L205.296,200.03 L201,183.353 L203.328,182.585 L215.481,181.25 C215.481,181.25 213.735,199.404 227.306,190.388 C230.163,188.489 223.748,179.024 223.748,179.024 L226.102,177" id="Fill-2777" fill="#39D6B3"></path>
                    <polyline id="Fill-2778" fill="#FFFFFE" points="236 98.88 269.88 118.644 288.938 82.646 257.175 65 236 98.88"></polyline>
                    <polyline id="Fill-2779" fill="#FFFFFE" points="282.938 271.944 307.169 256.944 287.151 222 265 236.364 282.938 271.944"></polyline>
                    <path d="M163.00668,123.003206 C163.07068,122.947206 163.81768,123.625206 165.00168,125.010206 C166.17968,126.397206 167.78668,128.506206 169.39868,131.352206 C171.01868,134.186206 172.62168,137.783206 173.76468,141.956206 C174.94868,146.100206 175.74268,150.757206 177.56268,155.243206 C178.50768,157.458206 179.65268,159.521206 181.01568,161.346206 C182.39068,163.158206 183.91568,164.748206 185.48568,166.135206 C188.69268,168.834206 192.05468,170.692206 195.04968,171.765206 C198.04168,172.852206 200.60468,173.341206 202.38668,173.516206 C204.16668,173.712206 205.17168,173.742206 205.17368,173.858206 C205.17868,173.931206 204.17568,174.084206 202.34768,174.049206 C200.52068,174.036206 197.86168,173.686206 194.72968,172.682206 C191.59568,171.692206 188.05468,169.860206 184.66768,167.101206 C183.00868,165.683206 181.39368,164.042206 179.93868,162.154206 C178.49768,160.257206 177.27968,158.086206 176.29068,155.764206 C174.39468,151.074206 173.64568,146.376206 172.54268,142.288206 C171.48968,138.186206 170.02568,134.657206 168.54468,131.816206 C167.07468,128.969206 165.61468,126.809206 164.57968,125.338206 C163.53868,123.869206 162.92868,123.072206 163.00668,123.003206" id="Fill-2780" fill="#252D35"></path>
                    <path d="M205.069875,100.000321 C205.317875,99.9623214 205.560875,103.297321 207.426875,108.230321 C208.357875,110.686321 209.744875,113.514321 211.734875,116.348321 C212.730875,117.767321 213.875875,119.164321 215.171875,120.557321 C216.458875,121.957321 217.860875,123.378321 219.185875,124.972321 C221.842875,128.189321 223.669875,131.666321 225.392875,134.735321 C227.100875,137.834321 228.461875,140.782321 229.153875,143.419321 C229.874875,146.048321 229.917875,148.310321 229.688875,149.811321 C229.449875,151.320321 229.074875,152.084321 229.012875,152.063321 C228.893875,152.032321 229.087875,151.225321 229.155875,149.764321 C229.214875,148.305321 229.028875,146.179321 228.222875,143.694321 C227.440875,141.199321 226.038875,138.387321 224.287875,135.354321 C222.509875,132.322321 220.665875,128.915321 218.127875,125.849321 C216.853875,124.315321 215.471875,122.899321 214.176875,121.465321 C212.874875,120.038321 211.689875,118.552321 210.691875,117.065321 C208.687875,114.088321 207.349875,111.121321 206.511875,108.556321 C205.654875,105.991321 205.289875,103.828321 205.116875,102.337321 C204.945875,100.843321 204.991875,100.007321 205.069875,100.000321" id="Fill-2781" fill="#252D35"></path>
                    <path d="M215.054853,165.022662 C215.040853,164.927662 215.592853,164.839662 216.113853,164.226662 C216.233853,164.086662 216.354853,163.880662 216.353853,163.759662 C216.349853,163.631662 216.259853,163.406662 216.105853,163.277662 C215.943853,163.134662 215.765853,163.063662 215.529853,163.087662 C215.285853,163.105662 214.988853,163.226662 214.599853,163.284662 C213.750853,163.397662 213.087853,162.917662 212.651853,162.528662 C212.203853,162.119662 211.861853,161.704662 211.605853,161.332662 C211.098853,160.583662 210.940853,160.042662 211.018853,160.003662 C211.107853,159.954662 211.414853,160.402662 211.986853,161.030662 C212.272853,161.342662 212.633853,161.700662 213.060853,162.046662 C213.480853,162.381662 213.995853,162.685662 214.507853,162.604662 C214.779853,162.570662 215.095853,162.442662 215.482853,162.416662 C215.875853,162.378662 216.311853,162.558662 216.551853,162.828662 C216.807853,163.104662 216.949853,163.429662 216.920853,163.814662 C216.843853,164.208662 216.635853,164.392662 216.462853,164.564662 C215.715853,165.219662 215.029853,165.112662 215.054853,165.022662" id="Fill-2782" fill="#E26559"></path>
                    <path d="M219.506,166 L213,168.366 C213,168.366 218.521,173.196 219.506,166" id="Fill-2783" fill="#FFFFFE"></path>
                    <path d="M212.742098,165.434818 C213.002098,165.928818 212.617098,166.641818 211.882098,167.029818 C211.148098,167.415818 210.341098,167.329818 210.081098,166.835818 C209.821098,166.342818 210.207098,165.628818 210.941098,165.241818 C211.676098,164.854818 212.482098,164.941818 212.742098,165.434818" id="Fill-2784" fill="#ED9E90"></path>
                    <path d="M219.83285,161.521512 C220.04585,162.037512 219.59585,162.712512 218.82885,163.029512 C218.06085,163.346512 217.26585,163.185512 217.05285,162.669512 C216.83985,162.154512 217.28985,161.479512 218.05785,161.162512 C218.82485,160.845512 219.61985,161.006512 219.83285,161.521512" id="Fill-2785" fill="#ED9E90"></path>
                    <path d="M214,174.251 C214,174.251 216.177,174.694 218.952,174 C218.952,174 217.584,175.33 215.349,175.639 C215.349,175.639 214.848,174.713 214,174.251" id="Fill-2786" fill="#E98E82"></path>
                    <path d="M214.954158,160.137158 C215.198158,160.344158 215.229158,160.710158 215.022158,160.954158 C214.815158,161.198158 214.449158,161.229158 214.205158,161.022158 C213.961158,160.815158 213.930158,160.449158 214.137158,160.205158 C214.344158,159.961158 214.710158,159.930158 214.954158,160.137158" id="Fill-2787" fill="#252D35"></path>
                    <path d="M210.954577,162.137577 C211.198577,162.344577 211.228577,162.710577 211.021577,162.954577 C210.814577,163.198577 210.448577,163.228577 210.204577,163.022577 C209.960577,162.815577 209.930577,162.449577 210.137577,162.204577 C210.344577,161.960577 210.709577,161.930577 210.954577,162.137577" id="Fill-2788" fill="#252D35"></path>
                    <path d="M215.439723,157.377263 C215.381723,157.562263 214.838723,157.556263 214.241723,157.737263 C213.639723,157.899263 213.182723,158.193263 213.034723,158.066263 C212.881723,157.959263 213.236723,157.309263 214.052723,157.077263 C214.867723,156.841263 215.512723,157.205263 215.439723,157.377263" id="Fill-2789" fill="#252D35"></path>
                    <path d="M208.042612,162.082997 C207.897612,161.974997 208.125612,161.351997 208.681612,160.730997 C209.243612,160.094997 209.963612,159.882997 210.038612,160.059997 C210.119612,160.232997 209.681612,160.635997 209.187612,161.194997 C208.687612,161.751997 208.200612,162.201997 208.042612,162.082997" id="Fill-2790" fill="#252D35"></path>
                    <path d="M205.21058,166.831053 C205.21058,166.831053 203.12358,165.078053 202.12158,166.664053 C201.12058,168.250053 206.62958,169.085053 206.62958,169.085053 L205.21058,166.831053" id="Fill-2791" fill="#F1B0A0"></path>
                    <path d="M154.876989,327 C154.876989,327 151.884989,328.301 151.103989,329.082 C150.323989,329.863 143.168989,342.22 144.079989,343.782 C144.989989,345.342 152.165989,340.043 152.165989,340.043 C152.165989,340.043 146.160989,341.18 154.876989,327" id="Fill-2792" fill="#252D35"></path>
                    <path d="M213.841174,343 C213.841174,343 211.716174,345.298 211.388174,346.352 C211.061174,347.405 210.474174,361.673 212.006174,362.631 C213.538174,363.59 217.727174,355.717 217.727174,355.717 C217.727174,355.717 212.720174,359.639 213.841174,343.033" id="Fill-2793" fill="#252D35"></path>
                    <polyline id="Fill-2703" fill="#39D6B3" points="398.066 113.051 399.07 111 427.029 132.363 414.832 152.124 387 128.657 398.066 113.051"></polyline>
                    <path d="M399.257,113 L426.498,133.174 C426.498,133.174 426.383,133.608 425.707,133.875 C425.031,134.141 424.639,134.074 424.639,134.074 L396,114.474 C396,114.474 397.651,114.09 398.25,113.642 C398.849,113.195 399.257,113 399.257,113" id="Fill-2705" fill="#EEEAE5"></path>
                    <path d="M395.258,114 L425.108,133.938 L415.415,152.311 L413.852,154.856 L384,132.762 C384,132.762 387.145,128.07 389.033,125.237 C390.92,122.404 394.625,115.721 394.828,115.294 C395.03,114.866 395.258,114 395.258,114" id="Fill-2706" fill="#39D6B3"></path>
                    <path d="M407.387232,81.0141631 C407.489232,81.1151631 405.811232,83.0031631 402.329232,85.0581631 C398.891232,87.1121631 393.479232,89.1491631 387.255232,89.1941631 C381.030232,89.2401631 375.589232,87.2841631 372.121232,85.2811631 C368.610232,83.2771631 366.903232,81.4141631 367.004232,81.3111631 C367.149232,81.1271631 369.058232,82.6991631 372.572232,84.4211631 C376.055232,86.1481631 381.302232,87.8631631 387.244232,87.8201631 C393.187232,87.7761631 398.408232,85.9831631 401.864232,84.2051631 C405.355232,82.4321631 407.239232,80.8321631 407.387232,81.0141631" id="Fill-2731" fill="#FFB02A"></path>
                    <path d="M369.158643,78.4604159 C369.062643,78.6704159 367.205643,77.8984159 364.075643,77.2014159 C362.516643,76.8324159 360.623643,76.5494159 358.514643,76.2864159 C356.398643,76.0534159 354.060643,75.8674159 351.590643,75.6914159 C349.118643,75.5174159 346.753643,75.3194159 344.604643,75.0534159 C342.458643,74.7674159 340.527643,74.4284159 338.937643,73.9984159 C335.745643,73.1654159 333.937643,72.1804159 334.001643,72.0404159 C334.083643,71.8304159 335.984643,72.4794159 339.145643,73.0494159 C340.723643,73.3494159 342.625643,73.5824159 344.744643,73.7944159 C346.868643,73.9884159 349.214643,74.1464159 351.688643,74.3214159 C354.164643,74.4974159 356.532643,74.7234159 358.680643,75.0314159 C360.823643,75.3684159 362.749643,75.7604159 364.321643,76.2614159 C367.483643,77.2254159 369.228643,78.3294159 369.158643,78.4604159" id="Fill-2732" fill="#FFB02A"></path>
                    <path d="M331.540667,37.3725049 C337.473667,36.1145049 343.622667,37.1985049 349.605667,38.1945049 C355.589667,39.1915049 361.801667,40.0905049 367.651667,38.4855049 C378.213667,35.5865049 386.231667,24.9155049 397.183667,25.0005049 C401.693667,25.0365049 405.945667,26.9625049 410.339667,27.9815049 C415.795667,29.2465049 421.478667,29.1105049 427.007667,30.0135049 C432.534667,30.9175049 438.244667,33.1395049 441.368667,37.7885049 C445.074667,43.3055049 444.057667,51.0885049 440.169667,56.4785049 C436.280667,61.8685049 430.051667,65.1505049 423.671667,67.0105049 C419.220667,68.3075049 414.477667,69.0575049 410.626667,71.6385049 C406.730667,74.2495049 404.186667,78.4515049 400.555667,81.4215049 C391.447667,88.8695049 377.271667,86.7355049 367.862667,79.6695049 C365.498667,77.8935049 363.306667,75.8345049 360.650667,74.5345049 C349.847667,69.2465049 334.311667,76.2475049 325.007667,66.6255049 C315.559667,56.8555049 316.905667,40.4765049 331.540667,37.3725049" id="Fill-2733" fill="#FFB02A"></path>
                    <path d="M329,226.723 C329,226.723 338.898,247.938 340.056,244.011 C341.211,240.08 340.829,230.646 340.209,229.298 C339.586,227.95 335.54,222 335.54,222 L329,226.723" id="Fill-2734" fill="#ECB3AA"></path>
                    <path d="M400.087,55.336248 C401.002,56.509248 400.391,55.248248 401.428,56.942248 C405.738,56.790248 408.631,53.143248 408.631,53.143248 C408.631,53.143248 415.473,53.324248 415.393,52.103248 C415.315,50.879248 408.835,51.336248 408.835,51.336248 C408.835,51.336248 415.69,49.182248 415.314,48.108248 C414.94,47.033248 407.026,50.460248 407.026,50.460248 C407.026,50.460248 415.012,45.502248 413.832,44.708248 C412.653,43.914248 404.969,48.242248 404.969,48.242248 C404.969,48.242248 411.647,42.757248 410.646,42.049248 C409.647,41.342248 400.385,48.481248 400.385,48.481248 C400.52,44.970248 398,45.093248 398,45.093248 L398.105,53.668248 C398.105,53.668248 399.665,54.796248 400.087,55.336248" id="Fill-2735" fill="#F4C3B7"></path>
                    <path d="M298.39915,17.075902 C296.93415,17.344902 298.07115,16.835902 296.17015,17.415902 C293.04915,14.439902 293.46315,9.76390198 293.46315,9.76390198 C293.46315,9.76390198 288.22915,5.35790198 289.09715,4.49690198 C289.97015,3.63390198 294.51115,8.27690198 294.51115,8.27690198 C294.51115,8.27690198 290.81715,2.11590198 291.81015,1.56090198 C292.80215,1.00790198 296.44815,8.82390198 296.44815,8.82390198 C296.44815,8.82390198 293.76515,-0.185098016 295.17515,0.00290198364 C296.58315,0.192901984 299.45715,8.52790198 299.45715,8.52790198 C299.45715,8.52790198 298.10615,-0.00509801636 299.32215,0.129901984 C300.53815,0.263901984 302.72715,11.752902 302.72715,11.752902 C304.95715,9.03690198 306.75815,10.801902 306.75815,10.801902 L301.10515,17.017902 C301.10515,17.017902 299.07215,16.952902 298.39915,17.075902" id="Fill-2736" fill="#F4C3B7"></path>
                    <path d="M334.218853,52.0216462 C332.324853,51.7116462 327.747853,54.7536462 325.457853,59.7116462 C324.176853,62.4856462 323.293853,65.3046462 324.765853,69.8186462 C325.457853,71.9416462 326.908853,72.2066462 327.230853,73.1576462 C327.641853,74.3626462 326.285853,78.1576462 326.285853,78.1576462 L331.688853,80.3396462 C332.040853,77.7326462 332.437853,75.1086462 335.095853,73.9766462 C336.089853,73.5536462 337.152853,73.2846462 338.090853,72.7476462 C340.622853,71.2956462 341.974853,68.1216462 343.013853,65.5226462 C343.789853,63.5816462 338.963853,52.7996462 334.218853,52.0216462" id="Fill-2737" fill="#F4C3B7"></path>
                    <path d="M327.805343,126.633 L318.753343,123 C318.753343,123 291.889343,172.818 292.000343,186.639 C292.112343,200.461 328.897343,228.133 328.897343,228.133 L335.101343,222.771 C335.101343,222.771 323.744343,202.968 317.672343,195.986 C311.601343,189.002 327.805343,126.633 327.805343,126.633" id="Fill-2738" fill="#ECB3AA"></path>
                    <path d="M372.629,182.592438 C372.629,182.592438 392.58,173.126438 388.571,172.290438 C384.562,171.458438 375.186,172.605438 373.895,173.333438 C372.601,174.062438 367,178.577438 367,178.577438 L372.629,182.592438" id="Fill-2739" fill="#F4C3B7"></path>
                    <path d="M336.417464,126 L322.685464,130.996 C322.685464,130.996 308.949464,191.411 314.193464,200.897 C319.435464,210.386 334.162464,204.106 355.136464,192.659 C372.705464,183.069 372.705464,183.069 372.705464,183.069 L366.841464,179.166 C366.841464,179.166 346.398464,183.172 340.657464,187.166 C340.657464,187.166 343.652464,178.677 347.648464,166.694 C351.641464,154.71 354.395464,142.477 336.417464,126" id="Fill-2740" fill="#F4C3B7"></path>
                    <path d="M320,84.918 C320,80.904 321.292,78 325.307,78 C329.322,78 334.869,79.408 334.869,83.423 C334.869,87.438 331.706,93.958 327.691,93.958 C323.677,93.958 320,88.934 320,84.918" id="Fill-2741" fill="#F4C3B7"></path>
                    <path d="M323.463111,77.443 C323.463111,77.443 310.981111,63.934 308.484111,50.702 C305.986111,37.47 301.744111,16 301.744111,16 L296.999111,17.365 C296.999111,17.365 294.751111,46.708 296.999111,51.202 C299.245111,55.696 310.224111,85.614 313.568111,93.471 L323.463111,77.443" id="Fill-2742" fill="#F4C3B7"></path>
                    <path d="M337,87.132 C337,87.132 337.959,82.93 353.744,77.219 C369.528,71.508 399.305,53 399.305,53 L402.277,56.398 C402.277,56.398 386.097,75.087 376.684,78.366 C367.271,81.645 347.278,94.569 345.221,95.604 C342.111,97.168 342.149,99.138 337,87.132" id="Fill-2743" fill="#F4C3B7"></path>
                    <path d="M322.682,77 C322.682,77 310,81.11 310,100.406 C310,100.406 310.008,126.836 312.997,131.644 C312.997,131.644 317.856,132.888 323.914,131.644 C330.266,130.337 336.414,125.652 336.414,125.652 L346.389,95.703 L345.196,81.671 L331.632,79.051 C331.632,79.051 335.524,97.235 321.446,89.418 C318.71,87.899 325.47,77.582 325.47,77.582 L322.682,77" id="Fill-2744" fill="#252D35"></path>
                    <path d="M312.249,92.747 L306,79.728 C306,79.728 306.896,71.831 318.368,69 C318.368,69 319.528,72.981 320.8,74.502 C322.071,76.023 325.773,77.64 325.773,77.64 L312.249,92.747" id="Fill-2745" fill="#252D35"></path>
                    <path d="M336.444416,97.745 L356.315416,93.672 C356.315416,93.672 359.770416,86.514 351.578416,78 C351.578416,78 336.079416,78.935 334.073416,79.102 C332.097416,79.267 333.454416,80.787 333.454416,80.787 L336.444416,97.745" id="Fill-2746" fill="#252D35"></path>
                    <path d="M313.9,125.203 C313.9,125.203 295.105,159.952 292,166.162 C292,166.162 347.449,191.632 369.958,160.973 C369.958,160.973 357.153,133.873 337.359,123.556 L328.82,121 L314.234,125.036" id="Fill-2747" fill="#252D35"></path>
                    <path d="M381.726696,36.5493779 C381.748696,36.6243779 380.921696,36.9813779 379.341696,37.3563779 C377.766696,37.7353779 375.428696,38.0793779 372.526696,38.1383779 C369.625696,38.1963779 366.175696,37.9383779 362.399696,37.4263779 C358.621696,36.9253779 354.515696,36.1893779 350.196696,35.7183779 C345.884696,35.2573779 341.738696,35.1733779 338.066696,35.7663779 C334.393696,36.3493779 331.214696,37.5523779 328.785696,38.9573779 C326.354696,40.3733779 324.664696,41.9443779 323.626696,43.1333779 C322.581696,44.3233779 322.112696,45.0833779 322.006696,45.0193779 C321.948696,44.9903779 322.260696,44.1333779 323.208696,42.8003779 C324.147696,41.4693779 325.806696,39.7153779 328.280696,38.1273779 C330.752696,36.5503779 334.038696,35.1963779 337.856696,34.5173779 C341.679696,33.8293779 345.955696,33.8833779 350.342696,34.3523779 C354.733696,34.8313779 358.842696,35.6093779 362.578696,36.1733779 C366.313696,36.7483779 369.687696,37.1003779 372.529696,37.1673779 C378.226696,37.3253779 381.674696,36.3143779 381.726696,36.5493779" id="Fill-2749" fill="#FFB02A"></path>
                    <path d="M331.68698,64.3361181 C331.68098,64.4201181 331.07098,64.4781181 330.13998,64.1701181 C329.90898,64.0891181 329.63798,63.9821181 329.38498,63.7501181 C329.25898,63.6351181 329.14398,63.4801181 329.07198,63.2951181 C328.97098,63.0361181 328.97898,62.7431181 329.07898,62.5191181 C329.10998,62.4731181 329.10898,62.3661181 329.16698,62.3641181 L329.34698,62.3591181 C329.46398,62.3421181 329.60098,62.3811181 329.73598,62.4061181 C329.98098,62.4531181 330.05898,62.4451181 330.23498,62.4571181 C330.54098,62.4641181 330.86098,62.4331181 331.17798,62.3621181 C332.47698,62.0891181 333.34798,61.1431181 333.73798,60.3651181 C334.14798,59.5821181 334.18298,58.9931181 334.29198,59.0001181 C334.36798,58.9901181 334.52098,59.6161181 334.18298,60.5611181 C334.01098,61.0231181 333.71198,61.5551181 333.22898,62.0211181 C332.74898,62.4861181 332.08398,62.8681181 331.32798,63.0331181 C330.95098,63.1171181 330.57198,63.1481181 330.20798,63.1291181 C330.04898,63.1221181 329.79898,63.0901181 329.72498,63.0741181 C329.65798,63.0621181 329.66698,63.0471181 329.65498,63.0561181 C329.64698,63.0631181 329.64198,63.0771181 329.64298,63.0951181 C329.66998,63.1861181 329.71898,63.2711181 329.78798,63.3491181 C329.92698,63.5051181 330.12798,63.6231181 330.32498,63.7211181 C331.13098,64.1151181 331.70198,64.2331181 331.68698,64.3361181" id="Fill-2750" fill="#E26559"></path>
                    <path d="M327,65 L334.319,67.884 C334.319,67.884 327.886,72.32 327,65" id="Fill-2751" fill="#FFFFFE"></path>
                    <path d="M337.742609,65.8358184 C337.482609,66.3288184 336.676609,66.4158184 335.940609,66.0288184 C335.206609,65.6418184 334.820609,64.9288184 335.081609,64.4348184 C335.341609,63.9418184 336.146609,63.8548184 336.882609,64.2418184 C337.616609,64.6288184 338.002609,65.3418184 337.742609,65.8358184" id="Fill-2752" fill="#ED9E90"></path>
                    <path d="M329.81827,61.6994308 C329.59627,62.2114308 328.79927,62.3594308 328.03727,62.0294308 C327.27427,61.7004308 326.83627,61.0174308 327.05727,60.5054308 C327.27927,59.9934308 328.07627,59.8464308 328.83927,60.1754308 C329.60027,60.5054308 330.03927,61.1874308 329.81827,61.6994308" id="Fill-2753" fill="#ED9E90"></path>
                    <path d="M327,73 C327,73 329.567,75.149 332.243,74.456 C332.243,74.456 331.32,75.841 327.767,75.333 C327.767,75.333 328.063,73.808 327,73" id="Fill-2754" fill="#E98E82"></path>
                    <path d="M337.159,61.579 C337.159,61.9 336.899,62.159 336.579,62.159 C336.258,62.159 336,61.9 336,61.579 C336,61.259 336.258,61 336.579,61 C336.899,61 337.159,61.259 337.159,61.579" id="Fill-2755" fill="#252D35"></path>
                    <path d="M332.159,59.58 C332.159,59.9 331.899,60.16 331.579,60.16 C331.259,60.16 331,59.9 331,59.58 C331,59.26 331.259,59 331.579,59 C331.899,59 332.159,59.26 332.159,59.58" id="Fill-2756" fill="#252D35"></path>
                    <path d="M339.081293,59.568649 C338.902293,59.643649 338.556293,59.225649 338.032293,58.886649 C337.519293,58.532649 336.999293,58.373649 337.000293,58.178649 C336.983293,57.992649 337.709293,57.842649 338.413293,58.315649 C339.120293,58.784649 339.260293,59.512649 339.081293,59.568649" id="Fill-2757" fill="#67477F"></path>
                    <path d="M330.00017,57.5302768 C329.98817,57.3492768 330.61117,57.1202768 331.44517,57.1432768 C332.29417,57.1612768 332.92117,57.5732768 332.83517,57.7452768 C332.75417,57.9192768 332.16317,57.8442768 331.41817,57.8302768 C330.66917,57.8082768 330.01217,57.7272768 330.00017,57.5302768" id="Fill-2758" fill="#67477F"></path>
                    <path d="M334,236.004 C334,236.004 337.045,246.811 340.189,245.926 C343.333,245.042 340.969,229.958 340.969,229.958 L337.831,225 C337.831,225 340.778,250.249 334,236.004" id="Fill-2759" fill="#221B51"></path>
                    <path d="M371,175.673602 C371,175.673602 373.215,173.257602 375.898,172.855602 C378.583,172.452602 388.178,171.311602 389.588,172.586602 C390.997,173.861602 381.81,178.136602 381.81,178.136602 C381.81,178.136602 385.011,176.097602 383.682,175.338602 C381.334,173.995602 371,175.673602 371,175.673602" id="Fill-2760" fill="#221B51"></path>
                    <polyline id="Fill-2761" fill="#221B51" transform="translate(370.321500, 180.459500) rotate(-24.000000) translate(-370.321500, -180.459500) " points="368 177.82 371.004 183.919 372.643 183.009 368.637 177 368 177.82"></polyline>
                    <polyline id="Fill-2762" fill="#221B51" points="334.374 220 327 226.644 329.185 228.466 335.375 221.729 334.374 220"></polyline>
                </g>
            </g>
        </g>
    </g>
</svg>